<?xml version="1.0" standalone="no"?>
<!DOCTYPE svg PUBLIC "-//W3C//DTD SVG 20010904//EN"
 "http://www.w3.org/TR/2001/REC-SVG-20010904/DTD/svg10.dtd">
<svg version="1.0" xmlns="http://www.w3.org/2000/svg"
 width="263.000000pt" height="263.000000pt" viewBox="0 0 263.000000 263.000000"
 preserveAspectRatio="xMidYMid meet">
<metadata>
Created by potrace 1.11, written by Peter Selinger 2001-2013
</metadata>
<g transform="translate(0.000000,263.000000) scale(0.100000,-0.100000)"
fill="#000000" stroke="none">
<path d="M0 1315 l0 -955 1315 0 1315 0 0 955 0 955 -1315 0 -1315 0 0 -955z
m1361 319 c44 -13 81 -32 118 -61 2 -1 -8 -20 -23 -42 l-27 -39 -45 25 c-89
50 -221 25 -280 -53 -38 -49 -56 -119 -49 -181 19 -158 192 -246 331 -169 l49
27 27 -33 c15 -18 28 -36 28 -39 0 -4 -22 -21 -48 -38 -121 -77 -283 -60 -390
42 -18 18 -48 61 -65 97 -28 57 -32 74 -31 145 1 157 88 274 237 320 57 18
103 18 168 -1z m289 -38 c0 -2 -47 -65 -105 -141 -92 -120 -104 -140 -92 -154
180 -214 217 -260 217 -265 0 -3 -24 -6 -54 -6 l-53 0 -104 126 -104 125 -3
-80 -3 -81 -39 0 -40 0 0 195 0 195 40 0 39 0 3 -80 3 -80 95 125 94 125 53 0
c29 0 53 -2 53 -4z"/>
</g>
</svg>
